<svg width="1440" height="721" viewBox="0 0 1440 721" fill="none" xmlns="http://www.w3.org/2000/svg">
<path opacity="0.3" fill-rule="evenodd" clip-rule="evenodd" d="M-14.0686 643.61H-326.267V645.61H-21.2366L-86.074 659.706H-391.992V661.706H-95.2734L-169.365 677.813H-467.776V679.813H-178.565L-264.996 698.604H-555.633V700.604H-274.196L-376.051 722.748H-654.22V724.748H-385.25L-505.615 750.915H-771.586V752.915H-514.814L-659.858 784.448H-910.412V786.448H-669.058L-841.865 824.017H-1076.74V826.017H-851.065L-1070.15 873.646H-1282.63V875.646H-1079.35L-2205 1120.37L-2204.58 1122.32L-1069.93 875.646H-955.236L-2003.82 1120.37L-2003.36 1122.32L-946.437 875.646H-831.281L-1801.96 1120.38L-1801.48 1122.31L-823.1 875.646H-707.261L-1600.12 1120.38L-1599.59 1122.31L-699.695 875.646H-582.793L-1398.27 1120.39L-1397.7 1122.3L-575.836 875.646H-459.161L-1197.1 1120.4L-1196.47 1122.29L-452.807 875.646H-334.888L-995.263 1120.41L-994.568 1122.28L-329.133 875.646H-210.767L-793.434 1120.42L-792.659 1122.27L-205.603 875.646H-86.9348L-591.614 1120.45L-590.741 1122.24L-82.3523 875.646H36.7751L-390.477 1120.48L-389.482 1122.21L40.7979 875.646H161.363L-188.684 1120.53L-187.537 1122.16L164.853 875.646H285.262L13.0891 1120.6L14.427 1122.09L288.252 875.646H409.152L214.843 1120.72L216.411 1121.97L411.705 875.646H532.669L415.922 1120.91L417.728 1121.77L534.884 875.646H656.778L617.707 1121.19L619.682 1121.5L658.803 875.646H780.464L819.575 1121.5L821.551 1121.19L782.489 875.646H904.11L1021.53 1121.78L1023.33 1120.91L906.326 875.646H1027.61L1222.85 1121.97L1224.41 1120.72L1030.16 875.646H1151.05L1424.83 1122.09L1426.17 1120.6L1154.04 875.646H1274.47L1626.79 1122.16L1627.94 1120.53L1277.96 875.646H1398.23L1828.74 1122.21L1829.73 1120.48L1402.25 875.646H1521.33L2030 1122.24L2030.87 1120.44L1525.92 875.646H1644.77L2231.92 1122.27L2232.69 1120.42L1649.93 875.646H1768.55L2433.83 1122.28L2434.52 1120.41L1774.3 875.646H1891.76L2635.73 1122.29L2636.36 1120.4L1898.11 875.646H2014.91L2836.95 1122.3L2837.53 1120.39L2021.87 875.646H2138.41L3038.84 1122.31L3039.37 1120.38L2145.98 875.646H2262.01L3240.73 1122.31L3241.22 1120.38L2270.2 875.646H2385.94L3442.62 1122.32L3443.07 1120.37L2394.74 875.646H2508.57L3643.83 1122.32L3644.26 1120.37L2517.99 875.646H2721.53V873.646H2508.79L2289.59 826.017H2515.12V824.017H2280.38L2107.48 786.448H2349.32V784.448H2098.28L1953.15 752.915H2210.42V750.915H1943.95L1823.52 724.748H2093V722.748H1814.31L1712.4 700.604H1994.03V698.604H1703.2L1616.72 679.813H1907.23V677.813H1607.52L1533.38 661.706H1831.27V659.706H1524.18L1459.31 645.61H1765.29V643.61H1453.33V0H1451.33V643.61H1402.36V0H1400.36V643.61H1352.06V0H1350.06V643.61H1301.76V0H1299.76V643.61H1250.79V0H1248.79V643.61H1200.49V0H1198.49V643.61H1150.19V0H1148.19V643.61H1099.22V0.33533H1097.22V643.61H1048.92V0H1046.92V643.61H998.617V0.33533H996.617V643.61H947.647V0H945.647V643.61H897.348V0H895.348V643.61H847.048V0H845.048V643.61H796.078V0H794.078V643.61H745.778V0H743.778V643.61H695.479V0H693.479V643.61H644.509V0H642.509V643.61H594.209V0H592.209V643.61H543.909V0H541.909V643.61H493.61V0H491.61V643.61H442.64V0H440.64V643.61H392.34V0H390.34V643.61H342.041V0H340.041V643.61H291.07V0H289.07V643.61H240.771V0H238.771V643.61H190.471V0H188.471V643.61H139.501V0H137.501V643.61H89.2017L89.2012 0H87.2012L87.2017 643.61H38.9021L38.9019 0H36.9019L36.9021 643.61H-12.0686V0H-14.0686V643.61ZM30.4092 645.61H-12.0686V645.663L-12.8562 645.835L-76.6597 659.706H-29.988L30.4092 645.61ZM38.9021 645.61V645.681L38.1292 645.862L-21.1887 659.706H25.2175L81.127 645.61H38.9021ZM89.2017 645.61V645.637L88.4458 645.827L33.3982 659.706H80.5476L131.973 645.61H89.2017ZM139.501 645.61V645.62L138.765 645.822L88.113 659.706H136.721L183.689 645.61H139.501ZM190.471 645.61V645.662L189.759 645.876L143.679 659.706H191.917L234.417 645.61H190.471ZM240.771 645.61L240.086 645.837L198.271 659.706H247.729L285.76 645.61H240.771ZM291.07 645.61V645.775L290.418 646.016L253.484 659.706H303.259L336.813 645.61H291.07ZM341.977 645.61L341.428 645.84L308.423 659.706H358.25L387.311 645.61H341.977ZM391.893 645.61L391.776 645.666L362.833 659.706H413.611L438.21 645.61H391.893ZM442.232 645.61L442.137 645.664L417.634 659.706H470.044L490.194 645.61H442.232ZM493.61 645.61V645.661L493.183 645.959L473.533 659.706H525.197L540.859 645.61H493.61ZM543.848 645.61L543.578 645.853L528.186 659.706H580.36L591.536 645.61H543.848ZM594.088 645.61L593.993 645.731L582.913 659.706H635.456L642.166 645.61H594.088ZM644.381 645.61L637.671 659.706H691.139L693.382 645.61H644.381ZM695.407 645.61L693.164 659.706H746.111L743.868 645.61H695.407ZM745.893 645.61L748.136 659.706H801.092L794.368 645.61H745.893ZM796.584 645.61L803.308 659.706H856.455L845.283 645.61H796.584ZM847.835 645.61L859.007 659.706H911.162L895.679 645.769L895.502 645.61H847.835ZM898.491 645.61L914.151 659.706H965.841L946.074 645.875L945.695 645.61H898.491ZM949.184 645.61L969.33 659.706H1021.18L997.12 645.923L996.617 645.635V645.61H949.184ZM1000.6 645.61L1025.21 659.706H1075.91L1047.48 645.925L1046.92 645.652V645.61H1000.6ZM1051.41 645.61L1080.49 659.706H1130.66L1097.83 645.917L1097.22 645.66V645.61H1051.41ZM1102.26 645.61L1135.82 659.706H1186.07L1148.84 645.903L1148.19 645.661V645.61H1102.26ZM1153.8 645.61L1191.82 659.706H1240.41L1199.17 646.035L1198.49 645.808V645.61H1153.8ZM1204.24 645.61L1246.76 659.706H1295.23L1249.5 645.983L1248.79 645.769V645.61H1204.24ZM1255.21 645.61L1302.19 659.706H1350.12L1300.49 646.111L1299.76 645.909V645.61H1255.21ZM1306.23 645.61L1357.69 659.706H1405.21L1350.81 645.995L1350.06 645.805V645.61H1306.23ZM1357.47 645.61L1413.4 659.706H1460.91L1401.13 645.75L1400.53 645.61H1357.47ZM1409.33 645.61L1469.71 659.706H1514.76L1452.11 646.093L1451.33 645.922V645.61H1409.33ZM-159.951 677.813L-85.8591 661.706H-38.5576L-107.575 677.813H-159.951ZM-98.7759 677.813L-29.7583 661.706H17.2849L-46.6045 677.813H-98.7759ZM-38.4238 677.813L25.4656 661.706H73.251L14.4856 677.813H-38.4238ZM22.051 677.813L80.8167 661.706H130.057L76.386 677.813H22.051ZM83.3438 677.813L137.015 661.706H185.887L137.321 677.813H83.3438ZM143.674 677.813L192.24 661.706H242.333L198.873 677.813H143.674ZM204.628 677.813L248.088 661.706H298.498L260.155 677.813H204.628ZM265.319 677.813L303.662 661.706H354.127L320.919 677.813H265.319ZM325.502 677.813L358.71 661.706H410.121L382.011 677.813H325.502ZM386.034 677.813L414.144 661.706H467.185L444.159 677.813H386.034ZM447.648 677.813L470.674 661.706H522.974L505.077 677.813H447.648ZM508.066 677.813L525.964 661.706H578.774L566.003 677.813H508.066ZM568.556 677.813L581.327 661.706H634.504L626.837 677.813H568.556ZM629.052 677.813L636.719 661.706H690.821L688.257 677.813H629.052ZM690.282 677.813L692.846 661.706H746.429L748.991 677.813H690.282ZM751.017 677.813L748.454 661.706H802.046L809.731 677.813H751.017ZM811.947 677.813L804.262 661.706H858.041L870.808 677.813H811.947ZM873.36 677.813L860.593 661.706H913.383L931.278 677.813H873.36ZM934.267 677.813L916.373 661.706H968.7L991.721 677.813H934.267ZM995.21 677.813L972.188 661.706H1024.68L1052.8 677.813H995.21ZM1056.83 677.813L1028.7 661.706H1080.03L1113.26 677.813H1056.83ZM1117.84 677.813L1084.62 661.706H1135.42L1173.77 677.813H1117.84ZM1178.93 677.813L1140.58 661.706H1191.46L1234.91 677.813H1178.93ZM1240.67 677.813L1197.22 661.706H1246.44L1295.03 677.813H1240.67ZM1301.38 677.813L1252.8 661.706H1301.9L1355.58 677.813H1301.38ZM1362.54 677.813L1308.86 661.706H1357.42L1416.22 677.813H1362.54ZM1423.79 677.813L1364.99 661.706H1413.15L1477.06 677.813H1423.79ZM1485.24 677.813L1421.33 661.706H1469.48L1538.48 677.813H1485.24ZM1547.28 677.813L1478.28 661.706H1523.97L1598.1 677.813H1547.28ZM-169.15 679.813L-255.582 698.604H-196.657L-116.145 679.813H-169.15ZM-107.345 679.813L-187.858 698.604H-129.067L-54.5371 679.813H-107.345ZM-46.3564 679.813L-120.886 698.604H-61.3638L7.18896 679.813H-46.3564ZM14.7546 679.813L-53.7983 698.604H7.11182L69.7219 679.813H14.7546ZM76.6797 679.813L14.0696 698.604H74.636L131.291 679.813H76.6797ZM137.644 679.813L80.9893 698.604H142.78L193.477 679.813H137.644ZM199.232 679.813L148.534 698.604H210.665L255.394 679.813H199.232ZM260.558 679.813L215.829 698.604H278.057L316.796 679.813H260.558ZM321.378 679.813L282.64 698.604H345.73L378.521 679.813H321.378ZM382.544 679.813L349.753 698.604H414.44L441.301 679.813H382.544ZM444.79 679.813L417.929 698.604H481.976L502.854 679.813H444.79ZM505.844 679.813L484.966 698.604H549.52L564.418 679.813H505.844ZM566.97 679.813L552.072 698.604H616.941L625.885 679.813H566.97ZM628.1 679.813L619.156 698.604H684.949L687.939 679.813H628.1ZM689.964 679.813L686.974 698.604H752.299L749.31 679.813H689.964ZM751.335 679.813L754.324 698.604H819.649L810.685 679.813H751.335ZM812.901 679.813L821.865 698.604H887.286L872.393 679.813H812.901ZM874.945 679.813L889.838 698.604H954.375L933.5 679.813H874.945ZM936.489 679.813L957.364 698.604H1021.44L994.58 679.813H936.489ZM998.068 679.813L1024.92 698.604H1089.1L1056.29 679.813H998.068ZM1060.32 679.813L1093.13 698.604H1156.14L1117.38 679.813H1060.32ZM1121.97 679.813L1160.73 698.604H1223.27L1178.53 679.813H1121.97ZM1183.69 679.813L1228.43 698.604H1290.99L1240.31 679.813H1183.69ZM1246.06 679.813L1296.75 698.604H1357.74L1301.06 679.813H1246.06ZM1307.41 679.813L1364.09 698.604H1424.87L1362.25 679.813H1307.41ZM1369.21 679.813L1431.83 698.604H1492.12L1423.52 679.813H1369.21ZM1431.09 679.813L1499.69 698.604H1559.55L1484.99 679.813H1431.09ZM1493.18 679.813L1567.73 698.604H1627.54L1547.05 679.813H1493.18ZM1555.85 679.813L1636.34 698.604H1693.78L1607.3 679.813H1555.85ZM-366.636 722.748L-264.781 700.604H-205.226L-300.106 722.748H-366.636ZM-291.307 722.748L-196.427 700.604H-137L-224.83 722.748H-291.307ZM-216.649 722.748L-128.819 700.604H-68.6604L-149.446 722.748H-216.649ZM-141.881 722.748L-61.0947 700.604H0.447998L-73.3347 722.748H-141.881ZM-66.377 722.748L7.40576 700.604H68.6057L1.84106 722.748H-66.377ZM8.19434 722.748L74.959 700.604H137.384L77.6392 722.748H8.19434ZM83.394 722.748L143.138 700.604H205.904L153.194 722.748H83.394ZM158.358 722.748L211.068 700.604H273.934L228.282 722.748H158.358ZM232.865 722.748L278.517 700.604H342.24L303.597 722.748H232.865ZM307.62 722.748L346.263 700.604H411.581L379.927 722.748H307.62ZM383.417 722.748L415.07 700.604H479.754L455.15 722.748H383.417ZM458.139 722.748L482.743 700.604H547.934L530.377 722.748H458.139ZM532.93 722.748L550.486 700.604H615.989L605.449 722.748H532.93ZM607.664 722.748L618.204 700.604H684.631L681.107 722.748H607.664ZM683.133 722.748L686.656 700.604H752.617L756.14 722.748H683.133ZM758.165 722.748L754.642 700.604H820.604L831.167 722.748H758.165ZM833.384 722.748L822.82 700.604H888.872L906.423 722.748H833.384ZM908.975 722.748L891.424 700.604H956.596L981.196 722.748H908.975ZM984.185 722.748L959.585 700.604H1024.29L1055.94 722.748H984.185ZM1059.43 722.748L1027.78 700.604H1092.59L1131.26 722.748H1059.43ZM1135.28 722.748L1096.62 700.604H1160.27L1205.94 722.748H1135.28ZM1210.53 722.748L1164.85 700.604H1228.03L1280.75 722.748H1210.53ZM1285.91 722.748L1233.19 700.604H1296.39L1356.12 722.748H1285.91ZM1361.87 722.748L1302.14 700.604H1363.77L1430.56 722.748H1361.87ZM1436.92 722.748L1370.13 700.604H1431.54L1505.33 722.748H1436.92ZM1512.29 722.748L1438.5 700.604H1499.42L1580.25 722.748H1512.29ZM1587.82 722.748L1506.99 700.604H1567.49L1655.35 722.748H1587.82ZM1663.53 722.748L1575.67 700.604H1636.11L1730.97 722.748H1663.53ZM1739.76 722.748L1644.91 700.604H1702.98L1804.89 722.748H1739.76ZM-375.836 724.748L-496.2 750.915H-420.797L-308.676 724.748H-375.836ZM-299.876 724.748L-411.998 750.915H-336.553L-232.762 724.748H-299.876ZM-224.582 724.748L-328.372 750.915H-252.209L-156.743 724.748H-224.582ZM-149.177 724.748L-244.644 750.915H-167.19L-79.9988 724.748H-149.177ZM-73.041 724.748L-160.232 750.915H-83.0869L-4.18921 724.748H-73.041ZM2.16406 724.748L-76.7336 750.915H1.64136L72.2429 724.748H2.16406ZM77.9978 724.748L7.39624 750.915H86.1431L148.433 724.748H77.9978ZM153.597 724.748L91.3071 750.915H170.212L224.159 724.748H153.597ZM228.742 724.748L174.794 750.915H254.442L300.107 724.748H228.742ZM304.13 724.748L258.465 750.915H339.663L377.069 724.748H304.13ZM380.558 724.748L343.152 750.915H423.852L452.927 724.748H380.558ZM455.917 724.748L426.842 750.915H508.045L528.792 724.748H455.917ZM531.344 724.748L510.597 750.915H592.041L604.497 724.748H531.344ZM606.712 724.748L594.256 750.915H676.625L680.789 724.748H606.712ZM682.814 724.748L678.65 750.915H760.621L756.458 724.748H682.814ZM758.483 724.748L762.646 750.915H844.605L832.122 724.748H758.483ZM834.338 724.748L846.821 750.915H928.749L908.008 724.748H834.338ZM910.56 724.748L931.301 750.915H1012.49L983.418 724.748H910.56ZM986.407 724.748L1015.48 750.915H1096.2L1058.8 724.748H986.407ZM1062.29 724.748L1099.69 750.915H1180.44L1134.75 724.748H1062.29ZM1138.77 724.748L1184.46 750.915H1264.05L1210.07 724.748H1138.77ZM1214.65 724.748L1268.63 750.915H1347.81L1285.51 724.748H1214.65ZM1290.67 724.748L1352.97 750.915H1432.1L1361.51 724.748H1290.67ZM1367.27 724.748L1437.85 750.915H1515.53L1436.6 724.748H1367.27ZM1442.95 724.748L1521.88 750.915H1599.21L1512 724.748H1442.95ZM1518.96 724.748L1606.17 750.915H1683.08L1587.55 724.748H1518.96ZM1595.12 724.748L1690.65 750.915H1767.11L1663.28 724.748H1595.12ZM1671.47 724.748L1775.29 750.915H1851.63L1739.53 724.748H1671.47ZM1748.33 724.748L1860.43 750.915H1934.53L1814.1 724.748H1748.33ZM-650.444 784.448L-505.4 752.915H-429.367L-564.478 784.448H-650.444ZM-555.678 784.448L-420.567 752.915H-344.486L-469.557 784.448H-555.678ZM-461.377 784.448L-336.305 752.915H-259.506L-374.547 784.448H-461.377ZM-366.981 784.448L-251.94 752.915H-173.854L-278.922 784.448H-366.981ZM-271.964 784.448L-166.896 752.915H-89.1172L-184.192 784.448H-271.964ZM-177.839 784.448L-82.7639 752.915H-3.75464L-88.8323 784.448H-177.839ZM-83.0774 784.448L2.00024 752.915H81.3823L6.3208 784.448H-83.0774ZM11.4849 784.448L86.5464 752.915H166.088L101.08 784.448H11.4849ZM105.662 784.448L170.671 752.915H250.952L195.924 784.448H105.662ZM199.947 784.448L254.975 752.915H336.804L291.728 784.448H199.947ZM295.217 784.448L340.293 752.915H421.63L386.593 784.448H295.217ZM389.583 784.448L424.62 752.915H506.459L481.458 784.448H389.583ZM484.01 784.448L509.011 752.915H591.089L576.079 784.448H484.01ZM578.294 784.448L593.304 752.915H676.307L671.289 784.448H578.294ZM673.314 784.448L678.332 752.915H760.939L765.955 784.448H673.314ZM767.98 784.448L762.964 752.915H845.559L860.603 784.448H767.98ZM862.819 784.448L847.775 752.915H930.334L955.327 784.448H862.819ZM957.879 784.448L932.886 752.915H1014.71L1049.74 784.448H957.879ZM1052.73 784.448L1017.7 752.915H1099.06L1144.13 784.448H1052.73ZM1147.61 784.448L1102.55 752.915H1183.93L1238.99 784.448H1147.61ZM1243.01 784.448L1187.96 752.915H1268.17L1333.22 784.448H1243.01ZM1337.8 784.448L1272.76 752.915H1352.57L1427.64 784.448H1337.8ZM1432.81 784.448L1357.73 752.915H1437.49L1522.55 784.448H1432.81ZM1528.3 784.448L1443.25 752.915H1521.56L1616.67 784.448H1528.3ZM1623.03 784.448L1527.91 752.915H1605.88L1710.97 784.448H1623.03ZM1717.93 784.448L1612.84 752.915H1690.38L1805.49 784.448H1717.93ZM1813.06 784.448L1697.95 752.915H1775.05L1900.16 784.448H1813.06ZM1908.34 784.448L1783.23 752.915H1860.2L1995.28 784.448H1908.34ZM2004.07 784.448L1868.99 752.915H1943.73L2088.86 784.448H2004.07ZM-659.644 786.448L-832.451 824.017H-734.02L-573.047 786.448H-659.644ZM-564.248 786.448L-725.221 824.017H-626.502L-477.49 786.448H-564.248ZM-469.309 786.448L-618.322 824.017H-518.905L-381.844 786.448H-469.309ZM-374.278 786.448L-511.339 824.017H-410.766L-285.586 786.448H-374.278ZM-278.628 786.448L-403.808 824.017H-303.495L-190.222 786.448H-278.628ZM-183.869 786.448L-297.142 824.017H-195.591L-94.2285 786.448H-183.869ZM-88.4736 786.448L-189.836 824.017H-87.8694L1.56006 786.448H-88.4736ZM6.72412 786.448L-82.7053 824.017H19.5039L96.9565 786.448H6.72412ZM101.539 786.448L24.0864 824.017H126.872L192.434 786.448H101.539ZM196.456 786.448L130.895 824.017H235.166L288.869 786.448H196.456ZM292.358 786.448L238.655 824.017H342.627L384.371 786.448H292.358ZM387.361 786.448L345.617 824.017H450.086L479.872 786.448H387.361ZM482.425 786.448L452.638 824.017H557.245L575.127 786.448H482.425ZM577.342 786.448L559.46 824.017H664.993L670.971 786.448H577.342ZM672.996 786.448L667.018 824.017H772.25L766.274 786.448H672.996ZM768.299 786.448L774.275 824.017H879.479L861.557 786.448H768.299ZM863.773 786.448L881.696 824.017H986.69L956.913 786.448H863.773ZM959.465 786.448L989.242 824.017H1093.7L1051.96 786.448H959.465ZM1054.95 786.448L1096.69 824.017H1200.68L1146.98 786.448H1054.95ZM1150.47 786.448L1204.17 824.017H1308.08L1242.48 786.448H1150.47ZM1246.51 786.448L1312.1 824.017H1414.84L1337.34 786.448H1246.51ZM1341.93 786.448L1419.42 824.017H1521.85L1432.4 786.448H1341.93ZM1437.57 786.448L1527.01 824.017H1629.28L1527.95 786.448H1437.57ZM1533.7 786.448L1635.04 824.017H1736.03L1622.71 786.448H1533.7ZM1629.06 786.448L1742.38 824.017H1842.84L1717.63 786.448H1629.06ZM1724.59 786.448L1849.8 824.017H1949.94L1812.79 786.448H1724.59ZM1820.36 786.448L1957.51 824.017H2057.16L1908.1 786.448H1820.36ZM1916.28 786.448L2065.35 824.017H2164.78L2003.84 786.448H1916.28ZM2012.64 786.448L2173.58 824.017H2270.96L2098.06 786.448H2012.64ZM-1060.73 873.646L-841.651 826.017H-742.589L-946.667 873.646H-1060.73ZM-937.867 873.646L-733.79 826.017H-634.435L-823.349 873.646H-937.867ZM-815.168 873.646L-626.254 826.017H-526.202L-699.964 873.646H-815.168ZM-692.399 873.646L-518.636 826.017H-417.43L-576.13 873.646H-692.399ZM-569.172 873.646L-410.472 826.017H-309.526L-453.13 873.646H-569.172ZM-446.777 873.646L-303.172 826.017H-200.987L-329.492 873.646H-446.777ZM-323.737 873.646L-195.232 826.017H-92.6301L-206.006 873.646H-323.737ZM-200.842 873.646L-87.4661 826.017H15.3806L-82.8115 873.646H-200.842ZM-78.229 873.646L19.9631 826.017H123.382L40.2654 873.646H-78.229ZM44.2881 873.646L127.405 826.017H232.306L164.222 873.646H44.2881ZM167.711 873.646L235.795 826.017H340.405L287.484 873.646H167.711ZM290.474 873.646L343.395 826.017H448.5L410.738 873.646H290.474ZM413.29 873.646L451.053 826.017H556.292L533.621 873.646H413.29ZM535.836 873.646L558.508 826.017H664.675L657.096 873.646H535.836ZM659.121 873.646L666.7 826.017H772.568L780.146 873.646H659.121ZM782.17 873.646L774.594 826.017H880.434L903.156 873.646H782.17ZM905.372 873.646L882.65 826.017H988.275L1026.03 873.646H905.372ZM1028.58 873.646L990.827 826.017H1095.92L1148.83 873.646H1028.58ZM1151.82 873.646L1098.91 826.017H1203.54L1271.61 873.646H1151.82ZM1275.1 873.646L1207.03 826.017H1311.57L1394.73 873.646H1275.1ZM1398.76 873.646L1315.6 826.017H1418.96L1517.21 873.646H1398.76ZM1521.79 873.646L1423.55 826.017H1526.61L1640 873.646H1521.79ZM1645.17 873.646L1531.77 826.017H1634.68L1763.15 873.646H1645.17ZM1768.91 873.646L1640.43 826.017H1742.06L1885.72 873.646H1768.91ZM1892.08 873.646L1748.41 826.017H1849.51L2008.24 873.646H1892.08ZM2015.2 873.646L1856.47 826.017H1957.24L2131.1 873.646H2015.2ZM2138.68 873.646L1964.81 826.017H2065.1L2254.08 873.646H2138.68ZM2262.26 873.646L2073.28 826.017H2173.35L2377.38 873.646H2262.26ZM2386.17 873.646L2182.14 826.017H2280.17L2499.37 873.646H2386.17Z" fill="url(#paint0_linear_10408_259)"/>
<defs>
<linearGradient id="paint0_linear_10408_259" x1="719.629" y1="0" x2="719.629" y2="1122.32" gradientUnits="userSpaceOnUse">
<stop stop-color="#863CFF" stop-opacity="0"/>
<stop offset="1" stop-color="#863CFF"/>
</linearGradient>
</defs>
</svg>
